<svg id="Layer_1" style="enable-background:new 0 0 64 64" version="1.1" viewBox="0 0 64 64" xml:space="preserve" xmlns="http://www.w3.org/2000/svg"><g id="Facebook"><circle cx="32" cy="32" r="29" style="fill:#57cef3"/><path d="M32 4C16.5 4 4 16.5 4 32s12.5 20 28 20 28-4.5 28-20h2c0 17.7-19.5 32-30 32C14.3 64 0 49.7 0 32S14.3 0 32 0v4z" style="fill-rule:evenodd;clip-rule:evenodd;fill:#0779e4"/><path d="M24.7.8c4.3-1 8.7-1.1 13-.3 4.3.8 8.4 2.4 12.1 4.9 3.6 2.4 6.8 5.6 9.1 9.2 2.4 3.7 4 7.8 4.7 12.1.7 4.3.5 8.7-.5 13-1.1 4.2-3 8.2-5.6 11.7-2.7 3.5-6 6.4-9.8 8.5-3.8 2.1-8 3.5-12.4 3.9l-.4-4c3.8-.4 7.5-1.5 10.8-3.4C49 54.5 52 52 54.3 49s4-6.5 4.9-10.2c.9-3.7 1.1-7.6.4-11.4-.6-3.8-2-7.4-4.1-10.6s-4.8-6-8-8.1C44.3 6.6 40.7 5.1 37 4.4c-3.8-.7-7.6-.6-11.4.3L24.7.8z" style="fill-rule:evenodd;clip-rule:evenodd;fill:#393e46"/><path d="M36 40v14h-8V40h-8v-8h8V22c0-5.5 4.5-10 10-10h.7c2.2 0 4.4.3 6.5.8l.8.2v7h-5c-2.8 0-5 2.2-5 5v7h10l-2 8h-8z" style="fill:#fff"/><path d="M36 63.8c-1.3.2-2.6.2-4 .2s-2.7-.1-4-.2V51.9c1.3.1 2.6.1 4 .1s2.7 0 4-.1v11.9z" style="fill:#acbdc5"/></g></svg>