<svg id="Layer_1" style="enable-background:new 0 0 64 64" version="1.1" viewBox="0 0 64 64" xml:space="preserve" xmlns="http://www.w3.org/2000/svg"><g id="GitHub"><path d="M64 32c0 14.2-9.2 26.2-22 30.4H22C9.2 58.2 0 46.2 0 32 0 14.3 14.3 0 32 0s32 14.3 32 32z" style="fill:#171516"/><path d="M60 32c0 15.5-12.5 20-28 20S4 47.5 4 32 16.5 4 32 4s28 12.5 28 28z" style="fill:#314a52"/><path d="M44 45c3-1 8-4 8-13 0-3.5-.9-6.7-2.9-9.3 2.2-5.3-.2-8.7-1.1-8.7-.8 0-4.2.6-7.3 3.1-2.5-.7-5.4-1.1-8.7-1.1-3.3 0-6.2.4-8.7 1.1-3.1-2.5-6.5-3.1-7.3-3.1-.9 0-3.3 3.4-1.1 8.7-2 2.6-2.9 5.8-2.9 9.3 0 9 5 12 8 13 2.4.8 5 1.3 6 1.5-.6.6-1.6 2.2-1.9 4.4-.8.6-2 1.1-3.6 1.1-3 0-4.5-2-6-4S11 45 10 45s-2 .5-1 1.5 2.3.2 5 5c2 3.6 4.5 3.5 6.5 3.5 1.8 0 3.5-1 3.5-1h15l1-2c0-2.8-1.3-4.8-2-5.5 1-.2 3.6-.7 6-1.5z" style="fill:#fff"/><path d="M9 46.5c-.6-.6-.5-1-.1-1.2 1.8 1.8 4.1 3.2 6.8 4.2 1.2 1.4 2.6 2.5 4.8 2.5 1 0 1.9-.3 2.7-.6 2.8.4 5.8.6 8.8.6 2.8 0 5.5-.1 8-.5V60l2.3 2.3c-6.7 2.3-13.9 2.3-20.6 0L24 60v-4.8c-.8.3-2.2.8-3.5.8-2 0-5-.4-7-4-2-3.7-3-4.4-3.8-4.9-.2-.2-.5-.4-.7-.6z" style="fill-rule:evenodd;clip-rule:evenodd;fill:#acbdc5"/></g></svg>