<svg id="Layer_1" style="enable-background:new 0 0 64 64" version="1.1" viewBox="0 0 64 64" xml:space="preserve" xmlns="http://www.w3.org/2000/svg"><g id="LinkedIn"><path style="fill:#57cef3" d="M3 3h58v58H3z"/><path d="M8 0C3.6 0 0 3.6 0 8v48c0 4.4 3.6 8 8 8h44l9-4V20h-1c0 12.2-7.7 22.8-19 28.2-3.5 2.3-9.8 3.8-17 3.8-11 0-20-3.6-20-8V8c0-2.2 1.8-4 4-4h12V0H8z" style="fill:#0077b5"/><path d="M16 0h40c4.4 0 8 3.6 8 8v48c0 4.4-3.6 8-8 8h-8v-4h8c2.2 0 4-1.8 4-4V8c0-2.2-1.8-4-4-4H16V0z" style="fill-rule:evenodd;clip-rule:evenodd;fill:#314a52"/><path d="M21 16c0 2.8-2.2 5-5 5s-5-2.2-5-5 2.2-5 5-5 5 2.2 5 5zm-9 8v27.5l8 .5V24h-8zm20 0h-8v28h8V38c0-3.3 2.7-6 6-6s6 2.7 6 6v10h8V34c0-5.5-4.5-10-10-10h-.6c-3.4 0-6.7 1.5-9 4l-.4.5V24z" style="fill:#fff"/><path d="M32 51.3v.7h-8c2.8 0 5.6-.2 8-.7zm12 .7h8V40.1c-2.3 2.5-5 4.7-8 6.5V52zm-24 0v-.2c-3-.2-5.7-.7-8-1.4V52h8z" style="fill:#acbdc5"/></g></svg>